<svg version="1.1" id="Layer_1" xmlns="http://www.w3.org/2000/svg" xmlns:xlink="http://www.w3.org/1999/xlink" x="0px" y="0px"
	 width="100%" viewBox="0 0 1024 1024" enable-background="new 0 0 1024 1024" xml:space="preserve">
<path fill="#000000" opacity="1.000000" stroke="none" 
	d="
M807.104370,515.683167 
	C809.538818,515.948120 811.519958,516.184204 813.495728,516.458984 
	C820.823975,517.477905 820.926270,517.732971 820.051270,525.157959 
	C819.019897,533.909790 818.302246,542.699768 817.197937,551.441589 
	C816.415161,557.638000 814.653870,563.567871 809.738708,567.910156 
	C802.372742,574.417664 794.182129,573.059998 784.752380,563.750610 
	C784.289856,564.111816 783.693054,564.411072 783.328308,564.887878 
	C778.260620,571.512756 771.637268,573.464966 763.843323,570.986694 
	C756.565125,568.672546 753.787476,562.731201 752.707397,555.772034 
	C751.334412,546.925903 753.407349,538.219116 754.004089,529.456726 
	C754.319580,524.823242 755.458496,520.223389 755.507874,515.600647 
	C755.556885,511.012299 757.800171,510.349670 761.538696,510.777863 
	C775.739563,512.404419 789.948792,513.957336 804.156006,515.528137 
	C804.981995,515.619507 805.817505,515.626038 807.104370,515.683167 
M765.403748,551.916382 
	C766.952820,555.348267 769.766907,556.322144 773.206909,555.687866 
	C776.403076,555.098633 778.057617,552.664734 778.530640,549.774597 
	C779.465881,544.059937 780.056152,538.286316 780.691467,532.526367 
	C780.901306,530.623718 780.668396,528.754700 778.165955,528.456421 
	C775.201843,528.103149 772.235718,527.757874 769.263367,527.487305 
	C767.804993,527.354431 766.527405,527.823547 766.361938,529.498230 
	C765.650024,536.702637 763.411560,543.825928 765.403748,551.916382 
M792.618530,534.266418 
	C792.202942,538.726501 791.464783,543.187012 791.469421,547.646606 
	C791.473450,551.515076 792.978333,555.030640 797.550537,555.475037 
	C801.833496,555.891357 804.022583,553.091980 804.780884,549.364807 
	C805.670166,544.993591 806.043762,540.518799 806.682190,536.094849 
	C807.158752,532.792297 805.985596,531.059204 802.439026,531.063354 
	C800.628723,531.065491 798.818115,530.618958 797.007263,530.377747 
	C794.621887,530.059875 793.157349,530.988770 792.618530,534.266418 
z"/>
<path fill="#000000" opacity="1.000000" stroke="none" 
	d="
M106.806862,537.651733 
	C107.182121,525.893738 105.556679,514.529785 107.600403,503.309570 
	C110.766144,485.929413 123.005974,475.536774 139.708450,475.706299 
	C156.289368,475.874542 168.625122,486.770813 171.412735,503.856628 
	C173.247803,515.104126 171.918854,526.450989 172.250854,537.747375 
	C172.327591,540.358887 170.802628,541.199524 168.451782,541.226135 
	C149.475464,541.441284 130.499435,541.681458 111.523148,541.899475 
	C108.950706,541.929077 106.827065,541.319580 106.806862,537.651733 
M158.744553,517.404541 
	C158.730240,514.909851 158.841171,512.406982 158.679977,509.921814 
	C157.974518,499.045563 150.716843,492.160645 139.859589,491.970642 
	C128.699844,491.775299 121.126266,498.515808 120.316521,509.593658 
	C120.038338,513.399353 120.372154,517.246704 120.184113,521.063049 
	C120.016418,524.466614 121.285240,525.822144 124.791039,525.748352 
	C133.768799,525.559265 142.752350,525.658325 151.733429,525.611450 
	C158.704880,525.575073 158.704773,525.554504 158.744553,517.404541 
z"/>
<path fill="#000000" opacity="1.000000" stroke="none" 
	d="
M227.659775,755.230713 
	C224.615112,753.079773 224.901993,750.842834 226.185104,748.050415 
	C230.061996,739.613342 233.698593,731.065857 238.042984,721.161255 
	C229.704926,725.306030 222.613953,728.800537 215.550491,732.349792 
	C206.729874,736.781921 204.890701,736.241211 199.026001,727.334229 
	C199.301147,725.746826 200.711914,725.387085 201.859604,724.801819 
	C214.772003,718.217590 227.751755,711.762146 240.581100,705.020325 
	C244.081268,703.181030 246.717926,703.024963 249.254410,706.310852 
	C250.262192,707.616455 251.539703,708.749268 252.829605,709.793884 
	C255.288239,711.785095 255.538727,713.924133 254.246292,716.819763 
	C250.873199,724.376770 247.779388,732.058411 245.452789,740.639771 
	C252.539764,737.201111 259.764069,734.012451 266.659515,730.225098 
	C270.472870,728.130615 272.983154,728.156921 276.153259,731.447266 
	C282.319489,737.847534 282.547333,737.659546 279.126831,745.610474 
	C273.861115,757.850525 268.569641,770.079407 263.260986,782.300842 
	C262.751587,783.473511 262.548401,784.915405 260.769775,785.572937 
	C257.263275,783.912537 254.815948,780.678955 251.917969,778.039307 
	C250.154114,776.432739 251.489807,774.615662 252.211990,772.990356 
	C255.989288,764.489441 259.807587,756.006775 263.919189,746.831482 
	C260.416656,747.053040 258.269867,748.648438 255.998352,749.763550 
	C250.915039,752.258789 245.842102,754.783142 240.851135,757.456543 
	C232.458862,761.951965 234.243759,761.372009 227.659775,755.230713 
z"/>
<path fill="#000000" opacity="1.000000" stroke="none" 
	d="
M759.011230,469.976196 
	C754.284180,471.663391 752.252502,469.668854 752.084595,465.538391 
	C751.946045,462.128235 748.221741,458.130432 753.527283,455.525909 
	C744.223206,443.892792 743.021423,431.634369 750.181030,422.151672 
	C757.425903,412.556000 771.615784,408.674652 782.515442,413.307251 
	C794.118591,418.238861 798.912720,429.264435 796.264771,445.481049 
	C802.171814,445.357361 807.702087,443.510620 813.304626,442.364044 
	C816.645142,441.680328 817.821167,442.692169 818.444275,445.740112 
	C821.038757,458.430603 821.695679,455.924316 811.033325,458.377319 
	C793.851685,462.330231 776.619629,466.064270 759.011230,469.976196 
M772.592285,427.196259 
	C763.023254,428.145905 758.425842,432.874664 759.299316,440.869080 
	C760.095337,448.154663 765.817871,451.968262 774.164673,450.775574 
	C781.039185,449.793274 785.163086,445.237671 785.000977,438.804779 
	C784.826538,431.882782 780.817139,427.859711 772.592285,427.196259 
z"/>
<path fill="#000000" opacity="1.000000" stroke="none" 
	d="
M554.152039,826.734619 
	C550.325623,816.557800 546.627625,806.750000 542.971130,796.926697 
	C540.488464,790.256836 540.514099,790.245911 547.422607,787.630859 
	C548.355957,787.277588 549.356445,787.053589 550.222778,786.580750 
	C552.648376,785.257263 554.637146,785.655273 556.031982,788.194092 
	C563.348877,778.406677 576.798279,773.843018 588.840210,780.343628 
	C598.780457,785.709473 604.645874,799.805786 601.708984,810.916992 
	C598.439453,823.286316 588.888306,829.170410 571.491272,829.246094 
	C573.476990,834.666321 575.267456,840.001648 577.393677,845.199585 
	C578.808411,848.658386 577.836365,850.251770 574.388123,851.485779 
	C562.243225,855.832275 564.890076,855.297424 560.921997,845.406555 
	C558.506836,839.386536 556.492493,833.205627 554.152039,826.734619 
M586.465149,809.525330 
	C587.980530,799.729614 583.402771,792.067627 575.609802,791.356201 
	C569.836426,790.829163 564.169373,794.712219 562.668640,800.223511 
	C561.126099,805.888367 564.880920,813.996582 570.111389,816.295288 
	C576.170349,818.958130 582.108276,816.718384 586.465149,809.525330 
z"/>
<path fill="#000000" opacity="1.000000" stroke="none" 
	d="
M282.309601,269.656769 
	C275.264954,258.505371 268.521240,247.591888 261.525574,236.842377 
	C259.561859,233.824951 260.036438,232.112885 263.060150,230.559418 
	C264.832092,229.649048 266.537750,228.566757 268.142578,227.384491 
	C270.243073,225.837051 272.083923,225.900665 274.062927,228.403015 
	C277.476349,220.662949 283.045044,215.759644 290.792908,213.522049 
	C295.888000,212.050613 301.019196,212.146317 306.004181,214.030594 
	C316.976471,218.178070 324.428864,230.690018 323.259216,242.844025 
	C322.188202,253.972961 312.942474,262.134308 298.059418,264.847107 
	C300.025330,270.069885 303.544037,274.312164 306.332001,278.940369 
	C307.960052,281.643097 307.838196,283.134583 305.020660,284.950714 
	C295.832916,290.872955 295.894867,290.990753 289.990448,281.785278 
	C287.472351,277.859314 285.005371,273.900604 282.309601,269.656769 
M297.274658,252.704407 
	C302.929413,251.827164 306.784332,248.895538 307.937134,243.087662 
	C308.965057,237.909058 305.803040,231.436157 301.029816,228.636322 
	C296.943359,226.239319 291.433105,226.687973 287.464508,229.844482 
	C283.484375,233.010178 282.558411,237.261154 283.720734,241.963043 
	C285.283173,248.283356 289.904785,252.057236 297.274658,252.704407 
z"/>
<path fill="#000000" opacity="1.000000" stroke="none" 
	d="
M428.396149,850.494141 
	C429.897736,850.068359 431.079651,849.852661 432.098816,849.323547 
	C436.566498,847.003906 436.877777,842.575134 432.582397,840.035645 
	C429.883606,838.440125 426.839294,837.423767 423.935486,836.181519 
	C419.501160,834.284363 414.834503,832.807922 410.654633,830.461487 
	C399.007233,823.922913 398.503174,808.283508 409.482697,800.598206 
	C413.857178,797.536194 418.833527,796.145935 424.048462,795.978760 
	C434.280975,795.650574 443.784851,798.297668 452.606659,803.547119 
	C456.061493,805.602844 457.578827,807.829041 454.703827,811.464539 
	C453.886261,812.498413 453.278931,813.718567 452.691650,814.910645 
	C451.316437,817.702026 449.680939,817.815552 447.159698,816.064636 
	C440.725037,811.596191 433.608948,809.066528 425.638947,809.287964 
	C422.034454,809.388123 418.666748,810.279785 417.822845,814.107422 
	C416.957397,818.033081 420.350739,819.599365 423.233734,820.852722 
	C428.113983,822.974243 433.148254,824.738098 438.080841,826.743042 
	C448.461914,830.962646 452.570862,837.293945 451.292175,846.956909 
	C450.217957,855.074768 442.691498,862.108093 433.298615,863.145386 
	C423.529144,864.224243 414.034119,863.034363 405.196777,858.285645 
	C399.840942,855.407593 399.663116,855.013794 402.600250,849.547546 
	C403.607330,847.673218 404.324127,845.566589 406.578735,843.997070 
	C413.114563,847.848328 420.070953,850.909363 428.396149,850.494141 
z"/>
<path fill="#000000" opacity="1.000000" stroke="none" 
	d="
M727.410889,697.454468 
	C724.974976,702.926575 726.703369,708.619263 727.890137,713.759644 
	C730.254333,723.999634 724.435059,729.889526 718.252625,736.913086 
	C715.730408,730.572205 715.795715,724.402771 714.798706,718.488342 
	C712.764954,706.423523 714.308960,708.298096 703.668152,708.824280 
	C696.691895,709.169312 689.694946,709.116394 682.706726,709.185913 
	C681.265076,709.200256 679.695068,709.548706 678.489563,708.327332 
	C680.571106,700.085815 687.783081,694.087341 695.849792,693.887695 
	C699.342957,693.801208 702.840393,693.829102 706.329590,693.668152 
	C708.062134,693.588196 710.465088,694.461853 711.267090,692.380981 
	C712.225708,689.893860 712.023682,687.123535 710.518799,684.719238 
	C710.095459,684.042908 709.352844,683.553894 708.719116,683.023743 
	C701.006287,676.571838 701.144165,676.676270 706.989319,668.693420 
	C709.356201,665.460815 711.259521,665.408569 714.259277,667.727905 
	C725.971069,676.782898 737.808533,685.675415 749.597351,694.630798 
	C753.703979,697.750427 757.740601,700.967407 761.933899,703.965637 
	C764.282898,705.645142 764.771118,707.121826 763.021973,709.689453 
	C756.501343,719.261536 756.594788,719.288696 747.258362,712.200195 
	C740.766235,707.271240 734.215332,702.419678 727.410889,697.454468 
z"/>
<path fill="#000000" opacity="1.000000" stroke="none" 
	d="
M519.065674,169.279205 
	C512.502747,167.983139 512.261475,168.080399 511.435547,174.327728 
	C510.047424,184.827728 508.129700,183.357956 519.911438,185.538101 
	C524.649414,186.414841 529.430481,187.091507 534.214111,187.678833 
	C538.050781,188.149887 540.209595,189.536072 538.707275,193.851242 
	C538.276733,195.087891 538.290222,196.474106 538.045105,197.781418 
	C537.561646,200.359848 536.258911,201.347656 533.450928,200.799820 
	C526.925537,199.526672 520.331238,198.611023 513.783691,197.444992 
	C509.751007,196.726868 507.102417,197.225250 506.917816,202.325287 
	C506.762482,206.617981 505.655579,210.872757 505.029419,215.153030 
	C504.550720,218.425446 502.942932,219.664856 499.528717,219.031723 
	C485.659821,216.459991 488.393097,217.992844 490.245178,205.837524 
	C492.720276,189.593079 495.783295,173.438904 498.389557,157.213165 
	C498.901062,154.028839 499.971710,152.955841 503.230042,153.493698 
	C516.688599,155.715286 530.174805,157.770905 543.657104,159.846725 
	C546.535889,160.289978 547.463928,161.884888 547.311035,164.700546 
	C546.877502,172.686478 545.931030,173.556015 538.187561,172.333450 
	C531.949524,171.348526 525.717590,170.324127 519.065674,169.279205 
z"/>
<path fill="#000000" opacity="1.000000" stroke="none" 
	d="
M648.046814,739.485840 
	C653.112732,722.982178 670.225830,712.409180 684.294006,716.738647 
	C694.868042,719.992798 702.750366,729.960022 703.232300,740.685974 
	C703.689758,750.866516 696.148743,762.149231 685.903076,766.613831 
	C676.006653,770.926208 665.195068,768.524292 657.539429,760.608398 
	C654.767944,757.742676 654.434143,755.703979 657.717957,752.899597 
	C664.295898,747.281860 670.592834,741.332947 676.947815,735.458008 
	C678.132385,734.362854 679.668152,733.472229 680.116943,731.359619 
	C678.081787,729.446716 675.633240,729.016296 672.951782,729.825256 
	C666.784851,731.685852 662.189819,735.651611 660.612488,741.808350 
	C659.076599,747.803223 654.981689,744.953918 651.854492,745.148682 
	C648.298950,745.370239 647.263916,743.129517 648.046814,739.485840 
M681.559937,744.066956 
	C678.398682,747.306396 674.194031,749.569641 671.958130,753.796387 
	C677.472534,756.903992 682.711487,756.068420 686.560669,751.703613 
	C690.188293,747.590088 690.539978,743.852478 687.653625,739.666748 
	C685.124329,740.001404 683.888794,742.211975 681.559937,744.066956 
z"/>
<path fill="#000000" opacity="1.000000" stroke="none" 
	d="
M219.064941,668.948120 
	C224.646927,672.488220 228.030151,677.342896 230.017151,683.173889 
	C232.337341,689.982727 229.989319,696.880554 224.227982,700.746460 
	C218.548721,704.557251 212.628906,704.106262 206.737549,699.411621 
	C202.217392,695.809631 199.468872,690.777344 196.104416,686.241882 
	C195.326508,685.193237 194.515717,684.169006 193.585526,682.958435 
	C189.101089,685.545349 189.581238,689.351440 190.881851,692.996155 
	C192.503128,697.539490 195.685242,701.150452 200.024521,703.167236 
	C203.904053,704.970337 204.038803,706.986877 201.768112,710.043518 
	C201.079849,710.969971 200.603516,712.061218 200.083221,713.103516 
	C198.973328,715.326965 197.447876,715.879456 195.222656,714.572876 
	C185.456543,708.838623 178.513596,700.827759 175.811081,689.691223 
	C174.015884,682.293579 176.774124,675.997620 182.585220,671.555481 
	C190.511978,665.496155 198.904770,660.046509 207.096863,654.334229 
	C207.939163,653.746887 208.813553,653.305969 209.881073,653.662598 
	C213.044098,654.719177 217.036530,664.241333 215.593857,667.358215 
	C216.650421,667.833740 217.706863,668.309265 219.064941,668.948120 
M205.815292,683.756958 
	C206.775070,684.899597 207.635361,686.148132 208.715546,687.162537 
	C210.903549,689.217407 213.477676,689.768188 215.901703,687.782532 
	C218.185181,685.912292 217.935837,683.437256 216.636383,680.998718 
	C215.271591,678.437561 213.424484,676.318542 210.754654,675.116882 
	C208.012268,673.882507 205.146362,673.605469 202.924652,676.023682 
	C200.518677,678.642456 203.876419,679.993591 204.591202,681.929993 
	C204.758957,682.384521 205.129105,682.764343 205.815292,683.756958 
z"/>
<path fill="#000000" opacity="1.000000" stroke="none" 
	d="
M358.862915,189.809113 
	C365.121796,192.966476 369.052155,197.705811 371.685181,203.717606 
	C373.190491,207.154587 372.688416,209.066711 368.818542,210.435760 
	C360.513092,213.373978 352.366730,216.764496 344.175690,220.021317 
	C342.687164,220.613159 340.905121,220.803772 340.019257,222.447510 
	C344.025970,227.817078 351.676788,228.160416 358.626099,223.296036 
	C359.438934,222.727051 360.127319,221.983551 360.907776,221.364288 
	C362.442261,220.146774 362.886017,217.015961 364.942474,217.373215 
	C367.792236,217.868256 370.543274,219.389862 373.123962,220.848206 
	C375.769592,222.343216 374.031677,224.339767 373.094757,225.972488 
	C366.460480,237.533920 346.731964,243.196884 334.642273,237.062378 
	C322.901917,231.105103 317.407593,216.318314 322.429596,204.194489 
	C327.822937,191.174179 343.905243,184.518402 358.050781,189.453674 
	C358.207550,189.508377 358.357697,189.582062 358.862915,189.809113 
M343.596405,210.034576 
	C347.435760,208.250900 351.763062,207.493652 355.211365,204.809662 
	C351.893860,199.607742 347.075684,198.390472 341.457214,201.143799 
	C336.576477,203.535583 334.645386,207.630508 336.295715,212.216339 
	C338.674042,212.263168 340.703766,211.013428 343.596405,210.034576 
z"/>
<path fill="#000000" opacity="1.000000" stroke="none" 
	d="
M150.497162,624.822632 
	C133.126297,615.396057 129.134033,593.064819 142.335327,580.904541 
	C143.068893,580.228821 143.837433,579.579773 144.649139,579.001770 
	C154.472916,572.006653 157.129257,572.897095 160.488403,584.142029 
	C162.895950,592.201599 165.418304,600.226807 168.112122,608.991943 
	C173.105743,605.476196 174.230515,601.350342 173.369446,596.705933 
	C172.540924,592.237305 170.519135,588.391174 167.049316,585.089355 
	C162.784851,581.031372 168.096527,578.431152 169.487320,575.422607 
	C170.864288,572.443970 173.110596,574.313232 174.873520,575.537415 
	C183.531250,581.549255 188.617462,596.920593 185.617264,607.911743 
	C182.601639,618.959473 173.633575,626.114868 161.546906,627.082275 
	C157.793686,627.382568 154.309631,626.211060 150.497162,624.822632 
M155.651321,600.735229 
	C154.448486,597.745850 154.592758,594.203247 152.190201,591.679626 
	C146.667603,594.651611 145.124298,599.186401 147.452850,605.093323 
	C149.411118,610.060913 153.480682,612.319092 158.644348,610.907227 
	C157.718933,607.776978 156.791153,604.638733 155.651321,600.735229 
z"/>
<path fill="#000000" opacity="1.000000" stroke="none" 
	d="
M596.673828,200.283661 
	C608.440247,197.343552 618.067017,200.933411 626.260254,208.695541 
	C633.985168,216.014053 635.868958,226.846054 631.625305,236.658325 
	C627.148804,247.008804 617.925659,252.808304 606.732117,252.311081 
	C593.483521,251.722595 580.937500,241.272400 578.923096,229.147690 
	C576.920776,217.095627 583.856140,205.631622 596.673828,200.283661 
M610.569458,213.505997 
	C602.844971,212.298080 598.545715,214.210541 595.603455,220.163528 
	C592.939636,225.553162 593.650024,231.813156 597.457703,235.430283 
	C601.033691,238.827362 605.383728,239.886551 609.886475,238.058960 
	C615.286987,235.866989 617.933167,231.165649 618.577576,225.611511 
	C619.228699,220.000076 616.403198,216.098724 610.569458,213.505997 
z"/>
<path fill="#000000" opacity="1.000000" stroke="none" 
	d="
M175.924957,457.698792 
	C168.985886,470.052917 157.631470,474.774628 144.948639,470.843475 
	C134.007370,467.452118 126.281052,456.338501 127.168762,445.268799 
	C128.346069,430.587830 136.428741,421.079193 149.453094,419.108154 
	C150.761917,418.910065 152.111572,418.829742 153.433029,418.891846 
	C161.957687,419.292511 162.799698,420.339203 161.219193,428.680542 
	C159.794418,436.199890 158.304443,443.706970 156.819427,451.214752 
	C156.499771,452.830811 155.863235,454.429169 156.988861,456.264404 
	C160.836731,456.627960 162.945251,453.959259 164.641907,451.199554 
	C167.562317,446.449249 168.299683,441.360016 166.248627,435.932800 
	C164.884323,432.322784 167.365295,429.394775 172.843597,427.592133 
	C176.616959,426.350494 177.114609,429.597321 177.830994,431.646759 
	C180.892258,440.404541 179.874420,449.004974 175.924957,457.698792 
M149.160477,433.428802 
	C142.777832,434.719421 139.448776,438.377319 139.360840,444.638855 
	C139.296783,449.200439 140.884705,452.894012 146.231003,454.916016 
	C147.401321,447.432983 150.481140,440.928223 149.160477,433.428802 
z"/>
<path fill="#000000" opacity="1.000000" stroke="none" 
	d="
M711.783264,330.203125 
	C712.473328,337.622772 716.030273,342.684875 722.495300,345.613007 
	C728.233582,348.212006 724.027161,352.213074 723.774719,355.499786 
	C723.552734,358.389526 721.202820,358.379395 718.809204,357.720856 
	C707.865234,354.710175 698.296082,340.058350 698.647095,326.738800 
	C698.941528,315.565552 707.792236,305.654114 719.609680,303.263916 
	C732.689941,300.618317 746.779053,310.377655 750.230469,324.474548 
	C752.750122,334.765411 748.795105,344.677094 739.956848,351.080750 
	C736.826050,353.349152 734.879089,353.157227 732.724915,349.832062 
	C727.478149,341.733063 721.974121,333.800507 716.552307,325.815460 
	C716.102905,325.153564 715.491333,324.601685 714.837585,323.866516 
	C712.147583,325.179077 712.427673,327.742676 711.783264,330.203125 
M733.971497,319.480255 
	C730.641846,317.268097 727.311401,315.065308 723.037842,318.591248 
	C726.955994,324.511078 730.372437,330.465820 735.017395,335.722412 
	C739.948853,330.180969 739.677429,325.942169 733.971497,319.480255 
z"/>
<path fill="#000000" opacity="1.000000" stroke="none" 
	d="
M179.373932,365.805328 
	C168.539307,358.052521 164.737305,346.949829 168.755630,335.499390 
	C173.121719,323.058014 183.123032,315.930664 195.095932,316.684601 
	C199.533310,316.964050 203.442352,318.722809 207.304977,320.737061 
	C210.321716,322.310242 210.808624,324.081604 208.865417,327.063751 
	C204.325653,334.030609 200.038376,341.164154 195.749451,348.290771 
	C194.665863,350.091278 193.138092,351.742676 192.971298,354.332062 
	C197.091263,356.087891 200.411667,354.491302 203.277283,351.790253 
	C206.800125,348.469849 208.656631,344.292328 208.860687,339.379456 
	C209.032684,335.237915 212.634689,332.820587 218.115768,333.314026 
	C222.074814,333.670441 221.252975,336.977112 221.304779,339.429565 
	C221.606369,353.704315 209.052368,368.240570 194.855637,369.964111 
	C189.361771,370.631104 184.371231,368.751892 179.373932,365.805328 
M190.454849,330.182922 
	C184.433411,331.316803 180.961014,334.600433 179.787994,340.403534 
	C179.037064,344.118561 180.118484,347.120483 183.912048,349.705444 
	C187.289551,344.067993 190.585938,338.733734 193.701263,333.295685 
	C195.270920,330.555756 193.223587,330.271515 190.454849,330.182922 
z"/>
<path fill="#000000" opacity="1.000000" stroke="none" 
	d="
M638.937012,239.966782 
	C642.708984,235.064545 646.305908,230.473221 649.779968,225.790771 
	C651.651672,223.267868 653.640869,222.627823 655.898804,225.091415 
	C658.513916,227.944656 663.611938,228.680374 663.200317,234.235809 
	C663.082764,235.822601 665.602905,235.496765 667.010498,235.813019 
	C676.661011,237.981339 684.006958,245.415115 685.640564,254.478516 
	C686.605469,259.832153 684.662781,264.440521 681.729004,268.523315 
	C676.288208,276.095123 670.442871,283.375580 664.804077,290.806213 
	C663.247375,292.857574 661.814392,293.484741 659.452637,291.667725 
	C648.012756,282.866547 649.506592,285.522217 656.918701,275.937775 
	C660.484070,271.327515 664.181335,266.791931 667.383789,261.935669 
	C670.850586,256.678680 670.156494,252.551605 665.920776,249.120178 
	C661.339966,245.409180 656.167847,245.296799 651.831848,249.216446 
	C646.860901,253.710114 643.401550,259.505066 639.225647,264.684845 
	C632.914307,272.513428 634.296021,272.220367 626.794922,266.406464 
	C626.268250,265.998260 625.753540,265.563293 625.183838,265.223755 
	C622.184937,263.436218 622.060791,261.500092 624.282288,258.770966 
	C629.223267,252.700912 633.916565,246.429230 638.937012,239.966782 
z"/>
<path fill="#000000" opacity="1.000000" stroke="none" 
	d="
M273.548248,277.697205 
	C272.372681,290.022461 263.451538,300.583679 251.656174,303.957123 
	C241.512802,306.858032 231.767136,303.480133 224.715332,294.429230 
	C218.898865,286.963867 217.873962,278.572083 221.311523,269.942932 
	C225.561050,259.275543 233.491714,252.196213 244.985016,250.861649 
	C261.300476,248.967163 272.841370,260.053925 273.548248,277.697205 
M234.162537,278.975922 
	C236.810577,287.323486 243.957794,292.199921 250.403046,290.056580 
	C256.714294,287.957764 260.664246,281.890167 259.355957,276.303864 
	C257.776459,269.559540 250.886765,264.476227 244.205750,265.125824 
	C237.847137,265.744080 234.117645,270.524933 234.162537,278.975922 
z"/>
<path fill="#000000" opacity="1.000000" stroke="none" 
	d="
M655.043152,771.000366 
	C657.584412,775.140991 659.860413,779.020935 662.323303,782.778381 
	C663.760315,784.970825 663.350708,786.405945 661.147339,787.642151 
	C659.262146,788.699829 657.462891,789.909973 655.618103,791.040405 
	C653.440613,792.374695 651.260071,794.139648 649.158997,790.291077 
	C645.708984,796.630066 641.470398,801.156372 635.509399,803.893921 
	C626.703613,807.938049 617.476135,806.160217 611.894165,798.302368 
	C606.024719,790.039917 600.958008,781.207031 595.544739,772.620728 
	C594.686829,771.259827 594.090027,769.783447 595.766663,768.685364 
	C598.826904,766.680969 601.913391,764.690735 605.135071,762.967896 
	C607.177551,761.875854 608.096497,763.751099 608.960205,765.150635 
	C612.807007,771.383789 616.550415,777.681580 620.457886,783.876099 
	C624.770996,790.713867 628.920654,792.206238 634.357422,789.095459 
	C640.217407,785.742554 641.809326,779.607727 638.138794,773.133911 
	C634.527954,766.765503 630.655029,760.541077 626.748352,754.347229 
	C625.135986,751.790955 625.671021,750.335815 628.108337,748.660583 
	C637.285828,742.352783 637.270935,742.251770 643.100830,751.536438 
	C647.083923,757.879822 650.942261,764.301575 655.043152,771.000366 
z"/>
<path fill="#000000" opacity="1.000000" stroke="none" 
	d="
M350.691437,792.725586 
	C359.337524,784.209167 369.151581,782.772339 379.953369,786.591003 
	C390.319550,790.255737 397.204742,796.997498 398.662018,808.373962 
	C400.213562,820.486206 392.721344,832.260498 381.106934,835.910461 
	C362.720703,841.688599 342.819122,827.576172 343.724762,809.291382 
	C344.029449,803.139709 346.384796,797.674438 350.691437,792.725586 
M369.861267,798.050720 
	C363.659882,799.620422 360.131500,803.519043 359.303497,809.716248 
	C358.534851,815.469177 360.573914,820.109985 365.147339,822.391663 
	C369.656250,824.641113 374.175598,824.626648 378.308716,821.458862 
	C382.477631,818.263672 384.718994,810.890869 383.044769,806.118347 
	C381.002686,800.297180 376.621552,797.936890 369.861267,798.050720 
z"/>
<path fill="#000000" opacity="1.000000" stroke="none" 
	d="
M769.051636,608.695923 
	C773.473267,611.050476 776.171631,608.752686 778.126282,605.340027 
	C780.793762,600.682861 781.397766,595.513611 780.357422,590.333862 
	C779.753296,587.326233 781.116150,586.475525 783.490295,585.870483 
	C791.458679,583.839783 792.904053,584.825073 793.198669,593.019104 
	C793.486633,601.028259 791.605286,608.564575 787.486694,615.447937 
	C782.544434,623.707947 774.556458,627.077820 765.268127,624.567810 
	C756.597168,622.224670 748.045410,619.442688 739.420288,616.925537 
	C736.526550,616.081055 735.067688,614.692017 736.373230,611.494141 
	C737.061768,609.807739 737.476074,608.002563 737.932251,606.229919 
	C738.588623,603.679321 739.441833,601.411438 743.196777,602.438782 
	C740.210144,594.337646 741.967529,587.393372 745.988953,580.916321 
	C749.845520,574.704712 756.836792,572.093872 763.251282,574.132751 
	C770.049622,576.293701 773.241821,581.149719 773.350098,588.989258 
	C773.444580,595.835999 770.119934,601.851868 769.051636,608.695923 
M762.547546,592.189453 
	C761.458984,589.334656 759.487122,587.517334 756.448914,588.850586 
	C752.919067,590.399597 751.628235,593.797974 751.431885,597.421509 
	C751.252258,600.737183 752.416931,603.652344 755.455322,605.433289 
	C757.414734,606.581726 759.213928,606.895325 760.041260,604.015137 
	C761.088318,600.369995 762.852478,596.898987 762.547546,592.189453 
z"/>
<path fill="#000000" opacity="1.000000" stroke="none" 
	d="
M771.213745,359.286621 
	C771.928162,361.539246 769.914001,361.998108 768.938416,363.722229 
	C773.987610,367.257812 777.931519,371.807068 779.926880,377.855865 
	C783.044861,387.307861 780.529663,395.626648 772.031006,400.862732 
	C763.078125,406.378693 753.056946,409.753387 743.459839,413.969543 
	C741.611755,414.781464 740.254578,414.303284 739.444458,412.365356 
	C738.352722,409.753632 737.253479,407.142334 736.055969,404.578247 
	C734.885132,402.071167 735.560608,400.660583 738.154602,399.583923 
	C744.921082,396.775330 751.630920,393.821198 758.290588,390.766541 
	C765.362854,387.522644 767.524231,383.259033 765.287109,377.491180 
	C763.025452,371.660339 757.060059,369.186523 750.344604,371.756622 
	C743.816589,374.255005 737.407593,377.088654 731.054932,380.011200 
	C727.676392,381.565491 725.732239,381.186218 724.039917,377.528748 
	C719.640686,368.021210 719.497009,368.117279 729.108643,364.006165 
	C739.979004,359.356628 750.900085,354.814362 761.646362,349.891998 
	C765.324463,348.207245 767.111450,348.773071 768.276855,352.589020 
	C768.951843,354.799255 770.155762,356.847931 771.213745,359.286621 
z"/>
<path fill="#000000" opacity="1.000000" stroke="none" 
	d="
M749.770630,666.021362 
	C755.821899,662.273865 758.046448,657.286743 756.480103,651.608398 
	C754.973083,646.145142 749.027954,642.012878 742.699280,642.029785 
	C737.040283,642.044922 732.743835,645.730164 731.038025,651.816956 
	C730.563049,653.511902 730.772217,655.026855 731.070679,656.692810 
	C731.403381,658.550110 733.541321,660.518799 731.754517,662.276123 
	C729.284180,664.705872 726.513855,667.043518 723.196777,668.152710 
	C720.939453,668.907532 720.136475,666.541382 719.482422,664.915283 
	C715.314453,654.553406 717.934570,645.226074 724.565674,636.946472 
	C733.123779,626.260864 746.270630,623.841797 757.673279,630.374573 
	C768.856506,636.781738 773.297241,649.652710 768.566467,662.361084 
	C765.210938,671.375244 759.864624,678.358215 749.743774,680.506958 
	C745.888245,681.325562 744.373596,680.024048 744.672485,676.258667 
	C744.986084,672.308960 742.700500,667.116760 749.770630,666.021362 
z"/>
<path fill="#000000" opacity="1.000000" stroke="none" 
	d="
M145.730072,395.444427 
	C150.822815,395.243225 155.475967,395.032532 160.131332,394.956543 
	C164.774094,394.880707 169.419052,394.939911 174.698334,394.939911 
	C173.424652,391.826538 171.166092,390.393646 169.367081,388.621765 
	C164.387665,383.717499 159.501175,378.705078 154.301956,374.043213 
	C151.375351,371.419098 150.444305,368.936768 152.447052,365.388184 
	C153.806351,362.979675 154.035370,359.995209 155.689438,357.993988 
	C157.514984,357.577667 158.221802,358.657257 159.021591,359.433014 
	C170.010925,370.092316 180.917480,380.838226 192.004486,391.394653 
	C194.575577,393.842743 194.995316,395.894836 193.558258,399.211212 
	C188.581924,410.695435 191.336258,409.043549 178.640930,409.326782 
	C166.500488,409.597626 154.362518,409.978607 142.222290,410.260834 
	C140.260574,410.306458 138.230682,410.577454 136.389145,409.662994 
	C136.192627,401.944275 139.944016,396.028503 145.730072,395.444427 
z"/>
<path fill="#000000" opacity="1.000000" stroke="none" 
	d="
M318.458527,800.368408 
	C323.015839,791.104309 327.503693,782.190857 331.652496,773.122314 
	C333.213593,769.709900 334.858704,769.197510 338.148529,770.865112 
	C349.605499,776.672729 347.708710,774.077942 343.179382,784.597839 
	C340.222595,791.465393 336.860809,798.161133 333.584808,804.887207 
	C332.356720,807.408569 331.662140,809.523315 335.085815,810.867737 
	C339.032501,812.417480 337.313568,815.032715 336.025757,817.345703 
	C334.706665,819.714722 334.347107,823.845398 329.876678,821.489624 
	C327.394867,820.181763 325.958557,820.986755 324.644775,823.246399 
	C316.847595,836.657227 302.818665,833.890503 293.508118,825.905884 
	C291.108154,823.847656 290.948334,821.857178 293.494263,819.727417 
	C295.261597,818.248901 296.872162,816.583008 298.474091,815.074951 
	C308.176270,820.136169 309.517181,820.010315 312.110504,813.855591 
	C309.999847,811.642395 306.995605,810.955444 304.362091,809.656677 
	C300.585052,807.793945 302.196045,805.272888 303.555695,803.052734 
	C304.919556,800.825745 304.996765,796.759094 309.702087,798.523438 
	C312.418304,799.541931 314.697784,802.888672 318.458527,800.368408 
z"/>
<path fill="#000000" opacity="1.000000" stroke="none" 
	d="
M289.052460,808.942749 
	C287.310547,812.697083 285.227966,812.660767 282.150330,810.809998 
	C273.477234,805.594360 273.411957,805.711548 278.404510,797.005981 
	C278.720337,796.455261 278.907440,795.830627 279.153137,795.243591 
	C277.373322,792.896240 274.764404,792.007141 272.569550,790.586304 
	C270.132172,789.008545 269.576660,787.506531 271.292023,784.904846 
	C276.347443,777.237366 275.786285,777.721436 282.022308,782.148193 
	C284.662354,784.022278 286.684845,784.099609 288.483795,780.883118 
	C290.837036,776.675598 293.665253,772.735779 296.073730,768.556641 
	C298.781555,763.858215 297.859100,760.919434 292.689209,759.403320 
	C285.699982,757.353638 290.290100,753.011108 290.621399,749.798340 
	C291.060120,745.543823 294.334656,747.013123 296.801086,747.736206 
	C301.022034,748.973694 304.728607,751.191833 307.848267,754.304993 
	C313.568573,760.013367 314.609436,766.830933 310.480042,774.345642 
	C307.127045,780.447449 303.319641,786.299622 299.756836,792.191345 
	C305.369781,798.009705 305.095764,797.926880 301.679016,803.558594 
	C298.718750,808.437927 296.096344,804.534973 293.267853,803.792053 
	C290.997833,804.660645 290.455353,806.943115 289.052460,808.942749 
z"/>
<path fill="#000000" opacity="1.000000" stroke="none" 
	d="
M691.506775,308.405396 
	C692.977966,309.515503 694.193604,310.375366 695.678040,311.425415 
	C695.374756,314.418854 693.427307,316.798950 692.121338,319.400024 
	C691.040222,321.553192 689.230103,321.098389 687.388062,320.268005 
	C673.360168,313.944031 670.513489,298.753723 681.427979,288.048523 
	C684.875366,284.667267 688.436035,281.394226 692.062256,278.205139 
	C694.301514,276.235779 695.241089,274.451782 692.564575,272.116150 
	C690.427185,270.250946 690.679749,268.156769 692.944031,266.760254 
	C695.332031,265.287415 696.963135,260.300568 700.531616,263.439667 
	C704.215576,266.680328 706.420410,265.293365 708.764160,262.502441 
	C711.550232,259.184631 714.032410,258.803345 716.588074,262.676331 
	C717.131348,263.499603 717.922424,264.160522 718.606384,264.889557 
	C723.163879,269.747101 723.338196,269.937897 718.394958,274.424438 
	C715.315186,277.219696 715.153625,279.222137 718.234924,282.037170 
	C720.896179,284.468536 723.798950,286.924438 719.181274,290.788147 
	C714.070618,295.064362 714.146301,295.574127 709.557678,290.258331 
	C706.583069,286.812378 704.433960,287.035736 701.508667,290.158722 
	C698.555969,293.310913 695.136169,296.020325 692.017334,299.023743 
	C689.145752,301.789093 688.092529,304.826263 691.506775,308.405396 
z"/>
<path fill="#000000" opacity="1.000000" stroke="none" 
	d="
M832.262512,495.086090 
	C833.572632,499.177063 833.488586,502.919342 832.781128,506.595276 
	C830.333923,507.802185 828.309937,506.631561 826.303406,506.069214 
	C801.802673,499.202637 777.323853,492.258148 752.825806,485.381775 
	C743.150452,482.665985 742.022034,480.738831 744.473999,470.292236 
	C747.547974,469.382202 750.268188,471.069061 753.042908,471.840424 
	C777.879333,478.744995 802.683350,485.766724 827.483643,492.800598 
	C829.053711,493.245880 830.513306,494.080505 832.262512,495.086090 
z"/>
<path fill="#000000" opacity="1.000000" stroke="none" 
	d="
M188.197449,276.682312 
	C196.890579,281.526886 203.806183,288.330597 211.395416,294.251526 
	C220.324692,301.217896 228.914642,308.619019 237.838989,315.591949 
	C240.988770,318.052979 241.655746,319.854950 238.827042,323.161346 
	C232.270142,330.825623 232.364227,331.026642 224.572632,324.768585 
	C210.415131,313.397491 196.373657,301.881744 182.185944,290.548798 
	C179.352371,288.285400 178.679047,286.397095 181.549393,283.753052 
	C183.863129,281.621765 185.169617,278.552368 188.197449,276.682312 
z"/>
<path fill="#000000" opacity="1.000000" stroke="none" 
	d="
M379.857971,204.952118 
	C378.277191,197.904373 376.763245,191.269623 375.279388,184.628174 
	C373.871643,178.327499 373.862610,178.221268 380.407501,176.768402 
	C383.677185,176.042557 387.580231,173.231995 389.726288,179.224167 
	C392.619324,176.038742 395.719849,173.685883 399.412170,172.103500 
	C402.820892,170.642639 405.192413,170.672119 405.693451,175.089813 
	C405.804626,176.070023 406.050873,177.063141 406.409393,177.982285 
	C408.070984,182.242416 407.093567,184.493195 402.248322,185.802872 
	C395.945190,187.506622 393.311523,192.757874 394.619446,199.546616 
	C395.875305,206.065048 397.348297,212.549042 398.969910,218.986679 
	C399.868256,222.553116 399.303558,224.585999 395.246185,225.291931 
	C384.142273,227.223785 385.900940,229.809006 382.837097,217.465408 
	C381.837708,213.439178 380.902496,209.397034 379.857971,204.952118 
z"/>
<path fill="#000000" opacity="1.000000" stroke="none" 
	d="
M164.504395,641.556519 
	C169.030563,645.504333 173.571548,645.013306 178.260193,642.744873 
	C184.252487,639.845764 190.294174,637.046570 196.248535,634.072144 
	C198.860397,632.767334 200.446442,633.128784 201.749969,635.921265 
	C207.469772,648.174683 208.439896,645.343201 196.772110,651.036194 
	C187.500519,655.559998 178.134750,659.890442 168.827774,664.342224 
	C161.114761,668.031616 161.149094,668.043701 157.441040,660.079041 
	C156.159149,657.325623 154.355103,654.628113 158.486084,652.228699 
	C154.118866,649.651672 150.948898,646.821899 148.761108,642.966064 
	C147.524155,640.786011 147.852112,639.500854 150.099365,638.141296 
	C157.845001,633.455139 158.063660,633.431213 164.504395,641.556519 
z"/>
<path fill="#000000" opacity="1.000000" stroke="none" 
	d="
M584.895996,192.813141 
	C584.327271,194.433151 583.723145,195.661713 583.500793,196.955872 
	C582.877136,200.586319 581.093018,201.378372 577.531616,200.423096 
	C570.151672,198.443542 565.477661,201.051300 562.856140,208.389969 
	C560.619812,214.650620 558.568787,220.983734 556.653320,227.350220 
	C555.604187,230.837296 553.885681,231.683792 550.385620,230.507690 
	C538.331116,226.457108 540.194519,228.017502 543.516235,217.606491 
	C547.052612,206.522675 550.831482,195.514374 554.227356,184.388535 
	C555.487427,180.260101 557.421265,178.887451 561.420349,180.823929 
	C562.606140,181.398132 563.915222,181.765915 565.205444,182.066895 
	C568.364929,182.803955 570.460693,184.221725 568.813293,188.493393 
	C573.570740,187.039734 577.688660,186.283005 582.074829,187.249756 
	C585.443787,187.992325 586.189880,189.494980 584.895996,192.813141 
z"/>
<path fill="#000000" opacity="1.000000" stroke="none" 
	d="
M513.549988,801.936951 
	C514.778748,808.256409 512.449402,812.696655 507.556915,814.036926 
	C502.676453,815.373901 497.869812,813.056580 496.190887,808.557251 
	C494.464111,803.929504 496.384460,798.828979 500.659790,796.687561 
	C505.522308,794.252075 509.940216,795.945679 513.549988,801.936951 
z"/>
<path fill="#000000" opacity="1.000000" stroke="none" 
	d="
M440.566650,206.614929 
	C443.048035,200.394791 447.365448,198.152435 452.785278,199.925980 
	C456.886505,201.268036 459.524902,205.873444 458.705994,210.260620 
	C457.793213,215.150375 453.444580,218.500580 448.642365,218.013641 
	C443.250092,217.466873 440.334961,213.520599 440.566650,206.614929 
z"/>
</svg>